<?xml version="1.0" encoding="UTF-8" standalone="no"?>
<!-- Created with Inkscape (http://www.inkscape.org/) -->

<svg
   xmlns:dc="http://purl.org/dc/elements/1.1/"
   xmlns:cc="http://creativecommons.org/ns#"
   xmlns:rdf="http://www.w3.org/1999/02/22-rdf-syntax-ns#"
   xmlns:svg="http://www.w3.org/2000/svg"
   xmlns="http://www.w3.org/2000/svg"
   xmlns:xlink="http://www.w3.org/1999/xlink"
   xmlns:sodipodi="http://sodipodi.sourceforge.net/DTD/sodipodi-0.dtd"
   xmlns:inkscape="http://www.inkscape.org/namespaces/inkscape"
   width="175mm"
   height="60mm"
   viewBox="0 0 175 60"
   version="1.1"
   id="svg8"
   inkscape:version="0.92.4 (5da689c313, 2019-01-14)"
   sodipodi:docname="Logo.svg">
  <defs
     id="defs2">
    <linearGradient
       id="linearGradient4553"
       inkscape:collect="always">
      <stop
         id="stop4547"
         offset="0"
         style="stop-color:#800000;stop-opacity:1" />
      <stop
         style="stop-color:#ff0000;stop-opacity:1"
         offset="0.4540216"
         id="stop4549" />
      <stop
         id="stop4551"
         offset="1"
         style="stop-color:#800000;stop-opacity:1" />
    </linearGradient>
    <inkscape:path-effect
       effect="envelope"
       id="path-effect838"
       is_visible="true"
       yy="true"
       xx="true"
       bendpath1="M 1.0136082,2.5923333 44.007224,-12.214265 105.29576,-12.37913 148.97721,2.194312"
       bendpath2="M 148.47862,-0.28851097 V 25.055773"
       bendpath3="M 1.4999853,23.367159 45.181443,37.940602 106.46997,37.775736 149.46359,22.969138"
       bendpath4="M 0.6482844,-0.28851097 V 25.055773"
       bendpath1-nodetypes="cccc"
       bendpath3-nodetypes="cccc" />
    <linearGradient
       inkscape:collect="always"
       xlink:href="#linearGradient4553"
       id="linearGradient4559"
       x1="1.3582577"
       y1="14.226194"
       x2="148.40007"
       y2="14.226194"
       gradientUnits="userSpaceOnUse" />
  </defs>
  <sodipodi:namedview
     id="base"
     pagecolor="#ffffff"
     bordercolor="#666666"
     borderopacity="1.0"
     inkscape:pageopacity="0.0"
     inkscape:pageshadow="2"
     inkscape:zoom="0.7"
     inkscape:cx="297.7829"
     inkscape:cy="222.57894"
     inkscape:document-units="mm"
     inkscape:current-layer="layer1"
     showgrid="false"
     inkscape:window-width="1366"
     inkscape:window-height="715"
     inkscape:window-x="-8"
     inkscape:window-y="-8"
     inkscape:window-maximized="1"
     showguides="true"
     inkscape:guide-bbox="true"
     inkscape:snap-to-guides="false"
     inkscape:snap-grids="false"
     inkscape:pagecheckerboard="true"
     width="85mm">
    <sodipodi:guide
       position="146.68552,196.70403"
       orientation="0,1"
       id="guide4669"
       inkscape:locked="false" />
    <sodipodi:guide
       position="-1.0690781,71.093694"
       orientation="0,1"
       id="guide851"
       inkscape:locked="false" />
  </sodipodi:namedview>
  <metadata
     id="metadata5">
    <rdf:RDF>
      <cc:Work
         rdf:about="">
        <dc:format>image/svg+xml</dc:format>
        <dc:type
           rdf:resource="http://purl.org/dc/dcmitype/StillImage" />
        <dc:title />
      </cc:Work>
    </rdf:RDF>
  </metadata>
  <g
     inkscape:label="Camada 1"
     inkscape:groupmode="layer"
     id="layer1"
     transform="translate(0,-237)">
    <path
       style="opacity:0.95999995;fill:#ff0000;fill-opacity:1;fill-rule:evenodd;stroke:none;stroke-width:2.67269516;stroke-linecap:square;stroke-linejoin:round;stroke-miterlimit:4;stroke-dasharray:none;stroke-dashoffset:7.55905533;stroke-opacity:1"
       d="m -24.584052,-6.5987819 c -4.123187,-1.44495 -12.631542,-6.0178101 -14.763641,-7.9348001 -2.748238,-2.47096 -2.919371,-3.668937 -2.95892,-20.713107 -0.01754,-7.55306 -0.220475,-13.8494 -0.450996,-13.99187 -0.230526,-0.14247 -2.089522,0.20414 -4.131109,0.77026 -3.311368,0.91821 -5.616974,1.03131 -21.363336,1.04794 -32.706436,0.0345 -55.837646,1.51958 -66.643616,4.27859 -3.14335,0.80257 -5.45736,1.82772 -8.04606,3.56455 -3.60617,2.41948 -3.66163,2.43598 -7.30769,2.17511 -3.00859,-0.21527 -4.02097,-0.53977 -5.59016,-1.79185 -4.3539,-3.47406 -6.77018,-11.46139 -6.77018,-22.37971 0,-15.71872 4.85256,-24.88668 13.17242,-24.88668 2.27152,0 3.13293,0.33656 5.96422,2.33025 3.80999,2.68285 8.59793,4.32641 15.07386,5.17441 2.49897,0.32723 7.06928,0.94062 10.15624,1.36309 4.0177,0.54985 13.96722,0.85691 35.012307,1.08057 25.972071,0.27602 29.986031,0.43099 34.429286,1.32926 2.766298,0.55925 5.335838,1.01682 5.710083,1.01682 0.531524,0 0.717619,-3.42192 0.850292,-15.63527 0.167145,-15.386591 0.189661,-15.663041 1.415576,-17.381811 1.751192,-2.45522 6.410883,-5.44352 12.600347,-8.08071 5.855108,-2.49473 8.489342,-2.73924 8.764416,-0.81351 0.08792,0.61551 -1.403155,4.22365 -3.313502,8.01809 -4.451683,8.842201 -5.707171,14.005011 -6.071626,24.967701 l -0.263052,7.91248 27.4620724,-0.42893 c 15.1041336,-0.23591 61.3785756,-0.42463 102.8320806,-0.41938 89.84589,0.0114 91.68386,0.0914 123.47852,5.37804 13.47673,2.24081 33.54385,6.59503 39.82318,8.64092 1.01846,0.33184 -3.35495,1.71375 -11.22535,3.54698 -3.38095,0.78751 -8.07154,1.88331 -10.4235,2.43509 -2.35196,0.55179 -7.76417,1.63987 -12.02714,2.41795 -4.26294,0.77809 -10.27649,1.88015 -13.36346,2.44904 -11.25437,2.07401 -15.98467,2.6427 -26.99422,3.24529 -13.53958,0.74107 -152.299567,0.93964 -192.6409026,0.27567 l -26.9337814,-0.44329 0.285533,8.20575 c 0.368395,10.58702 1.749536,16.12397 6.24046,25.017737 3.384375,6.7023801 3.805827,8.2479201 2.396574,8.7887001 -1.186521,0.45531 -1.779775,0.38369 -4.385225,-0.52937 z"
       id="path4565"
       inkscape:connector-curvature="0" />
    <g
       aria-label="Swordflix"
       style="font-style:normal;font-variant:normal;font-weight:bold;font-stretch:normal;font-size:27.80133438px;line-height:1.25;font-family:Algerian;-inkscape-font-specification:'Algerian Bold';font-variant-ligatures:normal;font-variant-caps:normal;font-variant-numeric:normal;font-feature-settings:normal;text-align:start;letter-spacing:0px;word-spacing:0px;writing-mode:lr-tb;text-anchor:start;fill:url(#linearGradient4559);fill-opacity:1;stroke:none;stroke-width:0.66714656"
       id="text817"
       inkscape:path-effect="#path-effect838"
       transform="matrix(1.1825444,0,0,1.1825444,-1.0479359,250.17689)">
      <path
         d="m 15.043101,4.4190851 c -0.467473,0.7349383 -0.86463,1.4596144 -1.177015,2.1922763 -0.589254,1.385776 -1.073887,2.3392139 -1.240736,2.6022885 -5.21e-4,5.931e-4 -0.07299,0.083112 -0.07351,0.083705 C 12.51891,9.1967972 12.49433,9.1186849 12.47821,9.0639007 12.25272,8.2334486 12.075191,7.6745848 11.921547,7.3503469 11.770806,7.0322311 11.535784,6.7310637 11.216186,6.4490532 10.40582,5.7329266 9.4667912,5.4182077 8.3922536,5.4602807 7.4050681,5.4989334 6.5625855,5.7882212 5.8642675,6.3153792 5.1649701,6.835151 4.7695371,7.4767563 4.7047237,8.2640437 c -0.1213761,1.4743565 1.0355865,2.5046493 3.423683,3.0647913 0.7936967,0.18731 1.5897645,0.375847 2.3822433,0.565054 3.370788,0.799528 5.084106,2.572479 5.228459,5.452237 0.08103,1.616482 -0.427348,3.015618 -1.564746,4.072199 -1.138143,1.056252 -2.54516,1.426693 -4.2154875,1.234725 C 8.9162602,22.533224 7.7616025,22.238321 6.4657024,21.818249 5.9281097,21.644177 5.3872791,21.477195 4.8433751,21.316549 4.1848465,21.127193 3.6351189,21.026523 3.2099649,21.005068 2.641078,20.97636 2.0698234,21.115305 1.4765632,21.400793 c -0.039091,-0.05825 -0.078535,-0.116536 -0.1183055,-0.174838 1.0609468,-1.432908 1.6961844,-3.081697 2.0189019,-4.553783 -0.00101,-2.69e-4 0.2635662,0.0702 0.2625525,0.06993 0.3305617,1.405128 1.0543429,2.502117 2.0729725,3.316457 1.0194401,0.814988 2.301891,1.317585 3.8562482,1.45315 1.2341582,0.107638 2.2049972,-0.09602 2.9239402,-0.659576 0.714936,-0.560413 1.047818,-1.377376 0.99183,-2.406398 C 13.420373,17.263406 12.848649,16.29224 11.783326,15.535722 11.015046,14.996779 9.4785689,14.49537 7.1404965,14.037784 5.337807,13.685235 4.0077805,13.122673 3.1947746,12.341155 2.3793232,11.557286 2.003746,10.482348 2.1125791,9.132248 2.2244275,7.744743 2.898375,6.6692519 4.0121038,5.8369992 5.1294882,5.0009804 6.5245437,4.5196612 8.186124,4.4269456 c 1.0738204,-0.059919 2.330537,0.04407 3.756296,0.3465473 0.668932,0.1451753 1.160918,0.2098646 1.482671,0.1887888 0.447028,-0.029282 0.942726,-0.225583 1.466724,-0.6056461 2.44e-4,1.008e-4 0.151041,0.062349 0.151286,0.06245 z m 0.851012,0.5636822 c -0.04129,0.077937 -0.08281,0.1555541 -0.124544,0.2328515 -0.38534,0.7203482 -0.718038,1.3529706 -1.013158,1.9726922 -0.627766,1.2783616 -1.180934,2.3095211 -1.193432,2.3315738 -9.25e-4,0.00123 -0.07259,0.096777 -0.07351,0.098011 -6.34e-4,-2.587e-4 -0.329548,-0.1343385 -0.330181,-0.1345972 0.0042,-0.00862 0.0567,-0.1167705 0.06088,-0.1253943 0.331041,-0.6888831 0.686828,-1.3420074 1.2702,-2.4446548 0.335868,-0.6390066 0.667688,-1.2984332 0.979126,-1.974511 0.02294,-0.041385 0.04582,-0.082864 0.06863,-0.1244375 0.118742,0.055946 0.237418,0.1121117 0.355992,0.1684666 z M 11.762571,8.001975 C 10.792307,6.9462659 9.7353363,6.4603062 8.5601218,6.4913213 7.8544455,6.5099447 7.2529918,6.7176647 6.7570091,7.1092321 6.2605664,7.5011628 5.9835895,7.9922732 5.9394166,8.5923844 c -0.048116,0.6536779 0.3860442,1.3289549 1.3161931,2.0320586 2.997e-4,1.83e-4 0.1107416,0.06743 0.1110412,0.06762 2.713e-4,-3.9e-4 -0.074993,0.107997 -0.074722,0.107607 C 6.0579867,10.264924 5.4738533,9.5012509 5.5489961,8.5136673 5.6012302,7.8271664 5.9139461,7.2730365 6.4690344,6.8381834 7.0234814,6.4038329 7.7185219,6.1706576 8.5524389,6.145253 c 0.7989852,-0.02434 1.4837651,0.1154444 2.0608881,0.4340047 0.586556,0.3089625 1.001885,0.7641584 1.2498,1.3655145 -1.92e-4,1.092e-4 -0.100364,0.057094 -0.100556,0.057203 z m 3.099592,5.483044 c 1.279966,0.972893 1.968631,2.338077 2.050984,4.121884 0.0883,1.91263 -0.532445,3.611582 -1.932264,4.888582 -1.41697,1.281963 -3.113077,1.677846 -5.0521524,1.388177 C 8.9498424,23.73743 8.0721111,23.505878 7.2992232,23.209328 6.5856299,22.942422 5.8654455,22.692042 5.1389171,22.456147 4.6303156,22.287949 4.0797059,22.184072 3.4905733,22.138939 2.96507,22.09868 2.4813041,22.159917 2.0330474,22.309539 1.9817815,22.190604 1.9286045,22.071469 1.8737329,21.952163 c 0.4814146,-0.16122 0.967973,-0.231345 1.4676033,-0.198091 0.5521996,0.03675 1.1880927,0.156736 1.891244,0.3721 0.7043978,0.220111 1.4032301,0.452799 2.09627,0.699797 0.8263754,0.29355 1.7025631,0.514569 2.6294147,0.641598 1.8311001,0.250959 3.4221721,-0.150635 4.7449651,-1.376531 1.317219,-1.221706 1.902293,-2.821411 1.816627,-4.621799 -0.07218,-1.516887 -0.631035,-2.815551 -1.656055,-3.899978 1e-6,4.8e-5 -0.0016,-0.08429 -0.0016,-0.08424 z m -9.8093767,3.81539 c 0.4960399,1.616111 1.5398895,2.799228 3.0291138,3.58771 0.00113,0.03706 0.0022,0.07413 0.00319,0.111207 -1.7027122,-0.613672 -2.871275,-1.816126 -3.4082983,-3.637835 0.00318,-5.17e-4 0.3728105,-0.06056 0.3759945,-0.06108 z M 2.997416,12.894705 c 0.011292,0.006 0.4809088,0.254589 0.4922003,0.260573 0.327047,0.536152 1.2681223,0.982298 2.8040006,1.35091 0.7720738,0.188688 1.5434522,0.37953 2.3120488,0.573217 1.5664573,0.397048 2.6046373,0.749748 3.1260043,1.043418 0.529554,0.284193 0.918365,0.715127 1.166473,1.298069 2.39e-4,-1.36e-4 -0.09438,0.05396 -0.09414,0.05382 C 12.356336,16.961159 11.875684,16.589247 11.367284,16.352201 10.867623,16.115113 9.909972,15.818174 8.4870665,15.475697 6.412177,14.983 5.0314303,14.594368 4.3001733,14.258782 3.5793422,13.919132 3.1393544,13.464781 2.997416,12.894705 Z"
         style="fill:url(#linearGradient4559);fill-opacity:1;stroke-width:0.66714656"
         id="path819"
         inkscape:connector-curvature="0"
         inkscape:original-d="M 14.223155,4.7070413 Q 13.517261,5.6572822 13.09644,6.6889724 12.268373,8.7252029 11.996876,9.1867485 l -0.06787,0.081449 Q 11.874702,9.1188742 11.847552,9.0374249 11.467456,7.8156866 11.223108,7.3405661 10.978761,6.8654457 10.490065,6.4310498 9.2547522,5.3314853 7.6800672,5.3314853 q -1.4525111,0 -2.4163269,0.8144923 -0.9638158,0.8009173 -0.9638158,2.0226556 0,2.2805778 3.4344422,3.1086458 l 2.2941533,0.556569 q 4.900528,1.181014 4.900528,5.172026 0,2.226279 -1.683284,3.746664 -1.669709,1.506811 -4.1403354,1.506811 -1.5475352,0 -3.4615919,-0.475121 L 4.0555768,21.390557 Q 3.0917611,21.159784 2.467317,21.159784 q -0.8280671,0 -1.71043364,0.52942 L 0.6482844,21.499156 q 1.6832839,-2.538501 2.3620274,-4.832654 l 0.2443477,0.06787 q 0.2850723,2.131255 1.7104337,3.312269 1.4253613,1.181013 3.7330893,1.181013 1.8190325,0 2.8914475,-0.841641 1.072415,-0.841642 1.072415,-2.267004 0,-1.642559 -1.493236,-2.714974 Q 10.096394,14.643846 6.7705509,13.992253 4.2049004,13.489982 3.0510364,12.322544 1.8971725,11.155105 1.8971725,9.0781495 q 0,-2.1448295 1.5339603,-3.4751668 1.5475352,-1.3439121 4.0181616,-1.3439121 1.5882598,0 3.7059396,0.5701445 0.990966,0.2714974 1.466086,0.2714974 0.665169,0 1.452511,-0.4615455 z m 0.841642,0.5701446 -0.122174,0.203623 Q 14.386053,6.417475 13.992382,7.2726918 13.042141,9.2681977 12.919967,9.4989705 L 12.852097,9.5939945 12.5263,9.4582458 12.5806,9.336072 q 0.393672,-0.8959415 1.14029,-2.3348777 l 0.923091,-1.7918829 0.06787,-0.108599 z M 11.100935,7.978585 Q 9.6076988,6.3903252 7.8972651,6.3903252 q -1.0316901,0 -1.7104336,0.5972943 Q 5.508088,7.5849138 5.508088,8.508005 q 0,1.0045404 1.3710619,2.06338 l 0.1085989,0.06788 -0.067874,0.108599 Q 5.1279916,9.9469412 5.1279916,8.4265558 q 0,-1.0588399 0.7601927,-1.7240086 0.7601928,-0.6651686 1.9819311,-0.6651686 1.1674388,0 2.0362305,0.5022702 0.8823671,0.4886953 1.2896131,1.3846368 z m 3.12222,5.389224 q 1.846182,1.398211 1.846182,3.828113 0,2.5928 -2.009081,4.398258 -2.009081,1.791883 -4.8869531,1.791883 -1.4660859,0 -2.6470997,-0.298647 L 4.354224,22.557996 q -0.7601927,-0.190048 -1.6289844,-0.190048 -0.7737677,0 -1.4253614,0.312222 L 1.1369797,22.286498 q 0.7058933,-0.325797 1.4389363,-0.325797 0.8144922,0 1.8597572,0.244348 l 2.09053,0.50227 q 1.2488881,0.298647 2.6335249,0.298647 2.7149739,0 4.6154559,-1.724008 1.914057,-1.737583 1.914057,-4.194635 0,-2.076955 -1.466086,-3.638065 z m -9.665308,3.909562 q 0.5022702,2.443477 2.6878244,3.461592 v 0.108599 Q 4.7207455,20.114519 4.1913255,17.345246 Z m -1.6968587,-4.398258 0.4615455,0.257923 q 0.4479708,0.800917 2.61995,1.330337 l 2.1855541,0.542995 q 2.2262791,0.55657 2.9593221,0.963816 0.746618,0.393671 1.05884,1.208163 l -0.09502,0.0543 Q 11.440306,16.530753 10.720838,16.204956 10.014945,15.87916 7.9922892,15.404039 5.0601172,14.725296 4.0555768,14.2366 3.0510364,13.73433 2.8609883,12.879113 Z" />
      <path
         d="m 39.431042,-8.9713105 c -0.723241,3.9449156 -1.386838,6.9440513 -1.866869,9.4821099 -0.471175,2.5364988 -1.152333,6.0911439 -2.003218,10.1233656 -0.766724,3.618726 -1.426954,6.962928 -2.250867,11.253646 0.08334,0.554704 0.162521,1.12946 0.235561,1.725166 0.52624,0.907533 1.0397,1.879923 1.534461,2.930127 -2.029669,-0.433486 -4.064457,-0.852139 -6.105221,-1.250608 0.62744,-0.700908 1.260196,-1.41877 1.860108,-2.101549 -0.595953,-4.130676 -1.797308,-8.538108 -2.483513,-11.368975 -0.775211,3.282016 -1.36998,6.483877 -2.214329,10.413012 0.751035,1.425504 1.459714,3.011645 2.07903,4.817884 -2.284396,-0.537664 -4.574944,-1.046136 -6.872648,-1.516995 -0.07199,-0.199124 -0.145596,-0.395369 -0.220702,-0.588852 2.1429,0.407333 4.279061,0.846421 6.409352,1.310693 -0.564274,-1.45943 -1.18812,-2.770003 -1.843325,-3.966871 0.931781,-4.265823 1.578341,-7.674296 2.444443,-11.267168 -0.150594,-0.628733 -0.292896,-1.2357034 -0.439655,-1.873014 -0.960456,4.027432 -1.71935,7.574589 -2.658068,12.04519 0.07133,0.386786 0.139715,0.78285 0.20397,1.18825 0.513368,0.77332 1.012752,1.596243 1.490736,2.478989 -2.049741,-0.383805 -4.105799,-0.745369 -6.169037,-1.079303 0.649153,-0.581759 1.291431,-1.176512 1.913563,-1.761692 C 21.252833,15.517273 19.655311,11.164128 18.39273,5.9178459 17.721161,5.3246882 17.028017,4.7215801 16.338818,4.1422158 18.563237,3.9432155 20.776652,3.7124602 22.980415,3.4555583 22.391913,4.2619224 21.77881,5.0167944 21.154499,5.7305247 c 1.027521,4.3042973 2.035883,7.9717443 3.191251,12.6034613 0.14492,-0.66921 0.281119,-1.293181 0.425825,-1.937308 -0.979146,-3.682494 -1.784689,-6.8680688 -2.649653,-10.4953253 0.414644,-0.4635896 0.824703,-0.9444033 1.22657,-1.4450472 0.105675,0.080812 0.211243,0.1617455 0.316615,0.2427099 -0.368228,0.4547519 -0.742869,0.8932631 -1.12118,1.3174646 0.782483,3.3268222 1.504693,6.28608 2.385193,9.5984 0.87669,-4.034097 2.094217,-7.6351399 2.822717,-12.7562366 0.421077,-0.056096 0.841834,-0.1130086 1.262279,-0.1706973 1.456969,6.028381 2.460313,10.1891689 3.688725,16.1250539 0.138516,-0.698055 0.269198,-1.350088 0.40524,-2.014501 -1.1085,-4.920607 -1.967183,-8.8355944 -3.262423,-14.2257046 0.125118,-0.017484 0.250209,-0.035034 0.375273,-0.05265 1.215264,5.1023539 2.014644,8.8877866 3.049856,13.4147276 0.459611,-2.245149 0.735784,-3.443544 1.223822,-5.686247 0.808178,-3.7323723 1.129838,-6.3628368 1.059432,-7.9191604 -0.07055,-1.55951763 -0.615719,-2.84129076 -1.596254,-3.6484508 0.970685,-0.8234256 2.013063,-1.9692757 3.038042,-3.5349042 1.033215,-1.578208 1.745054,-3.1263072 2.152269,-4.5219892 0.09487,0.135288 0.189188,0.2701642 0.282944,0.4045691 z m 1.126547,2.2598989 c -0.574265,2.5203627 -1.516927,6.69589402 -1.950523,8.6840731 -0.566917,2.6388218 -1.254183,5.7119815 -1.966672,9.1587225 -0.778586,3.735993 -1.435426,7.247264 -2.326963,11.885317 0.820996,1.77237 1.599178,3.784048 2.285728,6.131605 -2.2797,-0.598956 -4.564358,-1.178906 -6.85499,-1.731328 -0.08304,-0.245835 -0.167542,-0.487493 -0.253389,-0.725138 2.122303,0.478097 4.239024,0.979265 6.351025,1.496977 -0.598576,-1.875514 -1.257752,-3.528199 -1.94867,-5.013233 0.936111,-4.812354 1.611574,-8.410571 2.423166,-12.280733 0.723401,-3.4427366 1.400474,-6.5069968 1.949867,-9.0558927 0.58423,-2.73038413 1.17959,-5.3114034 1.920025,-9.0049133 0.124465,0.151982 0.24829,0.3035462 0.371396,0.4545434 z"
         style="fill:url(#linearGradient4559);fill-opacity:1;stroke-width:0.66714656"
         id="path821"
         inkscape:connector-curvature="0"
         inkscape:original-d="M 39.82536,-0.09846278 Q 37.938453,1.9784924 36.974638,4.0418727 36.024397,6.1052529 34.721209,10.870032 l -2.348452,8.552169 0.271497,1.05884 1.669709,1.493235 h -6.190141 l 1.778308,-1.493235 -2.402752,-8.701492 -2.334878,8.511443 2.334878,2.796424 h -6.936759 l -0.271497,-0.366522 h 6.461638 l -2.03623,-2.348452 2.56565,-9.285212 -0.447971,-1.6154092 -2.782848,10.1675782 0.217198,0.841642 1.58826,1.493235 H 19.653103 L 21.499285,20.481041 17.548998,6.2681514 15.512768,4.5577177 h 6.638111 l -1.859757,1.7104337 3.108645,11.1856936 0.475121,-1.64256 -2.61995,-9.3395106 1.235313,-1.0995645 0.312222,0.217198 -1.126714,1.0045404 2.375602,8.5385937 2.905022,-10.5748243 h 1.276038 l 3.529466,12.7875283 0.434396,-1.533961 -3.12222,-11.2535673 h 0.380096 l 2.918598,10.5748243 1.276037,-4.588306 q 1.194589,-4.3168092 1.194589,-5.6199968 0,-1.4525111 -1.357487,-2.2805782 1.58826,-0.5022702 3.407292,-1.3710619 1.819033,-0.86879168 2.714974,-1.56111007 z m 0.814493,1.03169014 Q 39.010868,2.7251102 37.952028,4.9785387 36.906763,7.2319672 35.807199,11.277279 l -2.402752,8.769366 2.606375,3.040771 h -6.963909 l -0.312222,-0.366522 h 6.448064 l -2.199129,-2.538501 2.497776,-9.095163 q 1.113139,-4.045311 2.131255,-6.2172903 1.018115,-2.1855541 2.714974,-4.16748513 z" />
      <path
         d="M 50.021758,5.4079148 C 49.944069,5.3357854 49.866337,5.2634524 49.788553,5.1909043 48.907182,4.4196752 48.111344,4.0297069 47.387888,4.0494171 46.781125,4.0659481 46.263182,4.3416838 45.822794,4.8576595 45.628236,5.0767533 45.449793,5.3425832 45.286788,5.65156 c -0.884697,1.8053167 -1.336809,4.799949 -1.305911,8.787909 0.02875,3.710738 0.514203,7.221449 1.373808,9.733958 0.158073,0.467464 0.330287,0.905369 0.517413,1.307974 0,0 0,0 10e-7,0 0.07242,0.139588 0.14707,0.273414 0.224027,0.401226 -5.8e-5,1.21e-4 -0.130698,0.273872 -0.130756,0.273993 -0.03634,-0.05745 -0.07222,-0.115423 -0.107643,-0.173908 0,0 -10e-7,0 -10e-7,0 -0.185524,-0.347862 -0.358733,-0.706236 -0.519747,-1.073268 0,0 0,-1e-6 0,-1e-6 -0.521082,-1.169712 -0.917955,-2.44136 -1.188258,-3.758875 -0.358187,-1.803426 -0.561419,-4.033425 -0.580792,-6.492834 -0.03593,-4.561362 0.555195,-8.0001404 1.698726,-9.8896345 0.166309,-0.2500003 0.345121,-0.4651395 0.537048,-0.64299 0.444379,-0.4316562 0.954503,-0.6628504 1.539723,-0.6798576 1.201257,-0.03491 2.092206,0.6519685 2.677332,1.9626629 z m -3.079606,-5.64631409 c 2.217523,-0.0875681 4.018344,1.56758149 5.400775,4.41962579 1.370037,2.8077546 2.036815,6.1361885 2.068376,10.1194415 0.03004,3.791671 -0.579947,7.365323 -1.922208,10.424994 -1.355051,3.110074 -3.15069,4.939628 -5.385,4.829389 -0.477069,-0.02354 -0.933499,-0.143317 -1.372409,-0.356473 -0.180415,-0.129348 -0.357501,-0.274037 -0.531562,-0.433373 -0.916278,-0.813418 -1.739698,-2.024521 -2.507433,-3.481786 -1.818747,-3.464785 -2.855902,-7.457301 -2.890288,-11.516295 -0.02993,-3.533306 0.647849,-6.4997814 1.911678,-9.193111 0.900928,-1.9199569 2.014056,-3.4879727 3.3863,-4.36692039 0,0 0,-1.9e-7 0,-1.9e-7 0.177486,-0.0813536 0.359289,-0.15057865 0.545607,-0.20734263626 0,0 10e-7,-9.485e-8 10e-7,-9.485e-8 C 46.056874,-0.14055629 46.488229,-0.22047423 46.942152,-0.23839929 Z m 0.09716,2.21938769 c -0.471039,0.015801 -0.899454,0.1479657 -1.289498,0.3918484 0,0 0,2e-7 0,2e-7 -0.189389,0.1104756 -0.369125,0.2473439 -0.539686,0.409419 -1.674399,1.8634458 -2.55558,6.1145592 -2.512667,11.440585 0.0406,5.038521 0.942944,9.78446 2.60888,11.821947 0.16816,0.211409 0.345203,0.398163 0.531657,0.558698 0,0 1e-6,1e-6 1e-6,1e-6 0.374018,0.246539 0.783239,0.381855 1.231382,0.401715 1.417564,0.06282 2.518242,-1.342786 3.284364,-3.80524 0.760111,-2.459595 1.097861,-5.65175 1.070641,-9.27038 C 51.393887,9.8752655 51.026559,6.8282522 50.282868,4.956404 49.499644,3.0053455 48.416905,1.9347759 47.03931,1.9809884 Z M 51.31975,0.95538136 c 1.334766,1.15275624 2.400429,3.09366854 3.17328,5.48845154 0.771834,2.391629 1.15666,4.9233341 1.179932,7.8030001 0.03381,4.184066 -0.654119,8.277601 -2.201955,11.970341 -1.570241,3.768547 -3.612456,6.066388 -6.092696,5.934413 -0.620546,-0.03302 -1.207496,-0.274431 -1.76998,-0.713409 -0.175404,-0.185887 -0.347961,-0.39052 -0.518135,-0.612834 -0.629399,-0.808673 -1.220917,-1.850013 -1.795925,-3.048717 10e-6,-2.14e-4 0.0065,-0.144936 0.0065,-0.14515 0.529239,1.035809 1.131999,1.920673 1.824036,2.594656 0.170589,0.17013 0.346377,0.327203 0.527618,0.470545 0.519288,0.278216 1.079766,0.435397 1.686025,0.46674 2.332631,0.120597 4.276878,-1.997986 5.815777,-5.516788 1.508726,-3.44981 2.190234,-7.212778 2.159021,-11.061766 -0.02341,-2.887089 -0.36871,-5.3873617 -1.056972,-7.7075374 -0.679149,-2.3196939 -1.660635,-4.2912217 -2.926392,-5.6387137 3.7e-5,0.00103 -0.01018,-0.28426273 -0.01015,-0.28323154 z"
         style="fill:url(#linearGradient4559);fill-opacity:1;stroke-width:0.66714656"
         id="path823"
         inkscape:connector-curvature="0"
         inkscape:original-d="M 49.409218,7.5849138 49.178445,7.4491651 Q 47.875258,6.729697 46.789268,6.729697 q -3.570191,0 -3.570191,7.018208 0,5.131301 2.212704,6.80101 l -0.122174,0.135749 q -1.357487,-0.963816 -1.941206,-2.524926 -0.570145,-1.574685 -0.570145,-4.248935 0,-7.5340526 3.963862,-7.5340526 1.805458,0 2.6471,1.2081634 z M 46.504196,4.3812444 q 3.298693,0 5.267049,2.4977762 1.981932,2.4977761 1.981932,6.6788364 0,3.950287 -1.954782,6.29874 -1.941206,2.348452 -5.226325,2.348452 -2.5928,0 -4.615456,-1.656134 -2.972896,-2.443477 -2.972896,-7.235406 0,-4.0996108 2.03623,-6.5159377 2.036231,-2.4163269 5.484248,-2.4163269 z m 0,1.1674389 q -4.588306,0 -4.588306,8.0634727 0,7.452604 4.520431,7.452604 2.104105,0 3.20367,-1.968356 1.099564,-1.981931 1.099564,-5.782895 0,-4.3032338 -1.05884,-6.0000926 -1.113139,-1.7647331 -3.176519,-1.7647331 z m 4.330383,-0.4751205 q 1.941207,0.9366661 3.067921,3.2036694 1.126714,2.2670038 1.126714,5.2398998 0,4.371108 -2.226278,7.058933 -2.212704,2.687824 -5.82362,2.687824 -2.307728,0 -4.316808,-1.56111 v -0.06787 q 1.683283,1.235313 4.221784,1.235313 3.407293,0 5.592847,-2.565651 2.185554,-2.56565 2.185554,-6.556662 0,-2.972897 -1.004541,-5.1991754 -0.990965,-2.2262787 -2.823573,-3.3258432 z" />
      <path
         d="m 57.408029,2.8626861 c 2.10902,-2.29715457 4.31212,-3.65480231 6.806098,-3.6959973 1.924085,-0.0317816 3.486435,0.82177433 4.736692,2.4017875 1.247509,1.5651282 1.863965,3.4380304 1.868532,5.4861563 0.0037,1.6737154 -0.391948,3.0759454 -1.18503,4.2912004 -0.791026,1.198526 -1.882802,2.068414 -3.265094,2.606615 0.633718,2.546948 1.513081,5.184349 2.612576,8.146486 1.105635,2.9548 2.245308,5.745623 3.365531,7.794911 1e-5,-8e-6 -0.201044,0.160688 -0.201033,0.16068 -1.325744,1.09065 -2.64191,2.692478 -3.946764,4.99347 -0.06881,0.124439 -0.137748,0.249516 -0.206815,0.375245 -0.02465,-0.405561 -0.04945,-0.804215 -0.07439,-1.196214 -0.611424,-9.118505 -1.578453,-14.248268 -2.60671,-17.870862 -2.95e-4,-0.0011 -0.05559,-0.208371 -0.05589,-0.209482 -0.610281,0.443234 -1.431272,0.799725 -2.464113,1.062858 1.01e-4,-1.9e-5 -0.107018,0.02063 -0.106917,0.02061 0.02644,2.447227 0.06676,5.778535 0.07371,9.131256 0.799563,1.80793 1.594971,3.774333 2.398252,5.966662 -2.370583,-0.04171 -4.741923,-0.09987 -7.113576,-0.174594 -0.06554,-0.312794 -0.13143,-0.621068 -0.197666,-0.924993 2.177479,0.06745 4.354497,0.121332 6.530789,0.161705 -0.658164,-1.744854 -1.312696,-3.344133 -1.96969,-4.834335 -0.0034,-3.598342 -0.04802,-7.228761 -0.07502,-9.794256 8.24e-4,-1.81e-4 0.279736,-0.06131 0.28056,-0.06149 1.016363,-0.162478 1.863907,-0.474142 2.545874,-0.928306 -0.05535,-0.166164 -0.08758,-0.269068 -0.09697,-0.310494 -0.0032,-0.01349 -0.136745,-0.582195 -0.139904,-0.595688 -0.0093,-0.04086 -0.03245,-0.122719 -0.06929,-0.24501 -0.549639,0.243017 -1.591392,0.506817 -3.123164,0.787063 -1.9e-5,6e-6 -0.146871,0.04037 -0.14689,0.04038 0.02534,2.609064 0.07739,6.77624 0.07955,10.52453 0.515286,1.12839 1.029222,2.320853 1.544141,3.593598 -2.010512,-0.0391 -4.021841,-0.08906 -6.033901,-0.149915 0.616888,-1.23807 1.215732,-2.396344 1.808893,-3.499435 0.01408,-3.03231 -0.0098,-5.892365 -0.03038,-8.182981 6.9e-5,-1.4e-5 -0.107214,0.02039 -0.107145,0.02038 -0.517037,0.180838 -0.98534,0.384287 -1.404218,0.611435 9.6e-5,-5.8e-5 -0.107033,0.06415 -0.106937,0.06409 -0.04141,-0.14603 -0.08284,-0.291136 -0.12427,-0.435357 0.391495,-0.23939 0.699685,-0.400037 0.922161,-0.482863 0.0037,-0.0014 0.704989,-0.26809 0.708648,-0.269483 9e-5,-3.5e-5 0.106834,-0.04137 0.106924,-0.04141 -0.0024,-0.257819 -0.0076,-0.830305 -0.01,-1.088124 -0.526381,-0.0037 -1.183865,0.170238 -1.967204,0.52367 3.1e-4,-1.73e-4 -0.147254,0.0822 -0.146944,0.08203 0.01619,-0.193906 0.101964,-0.646028 0.256933,-1.33605 0.01764,-0.05479 0.07718,-0.358595 0.180073,-0.908045 -0.0052,0.02408 0.04388,-0.204456 0.03872,-0.18038 0.40277,0.04172 0.715618,0.06306 0.939135,0.06392 0.241334,9.38e-4 0.464513,-0.01832 0.669687,-0.05781 C 58.886633,12.089 58.856533,6.7954713 58.814623,4.0332434 58.39559,3.6016835 57.963239,3.2331014 57.517186,2.9335855 c 4.5e-5,2.98e-5 -0.109208,-0.070938 -0.109162,-0.070908 z m 4.053564,-0.717047 c 0.05779,3.4516075 0.08242,9.0218169 0.104319,11.5782879 0.258816,4.58e-4 0.503841,-0.03263 0.735241,-0.09932 -0.02827,-3.297443 -0.03118,-6.4798086 -0.08424,-10.454987 0.490275,-0.2498197 1.078849,-0.3815644 1.769586,-0.3905584 1.754456,-0.022845 2.93848,1.0400442 3.577733,2.9684586 C 66.897964,4.8518879 66.315785,4.2143835 65.81037,3.8698575 65.305419,3.5098615 64.705879,3.3306077 64.006279,3.3392542 c -0.546717,0.00676 -1.023855,0.1098759 -1.433943,0.3065376 0.04489,3.7549744 0.04947,6.8141962 0.07672,9.9792922 -8e-6,2e-6 0.146837,-0.04004 0.146829,-0.04004 1.751011,-0.480014 3.048959,-1.238458 3.886498,-2.274425 0.847706,-1.051115 1.269435,-2.4190921 1.262318,-4.1994041 C 67.938307,5.5122254 67.549005,4.088664 66.769466,2.919008 65.984441,1.7248534 65.011746,1.0936198 63.829203,1.1114084 62.883058,1.1256409 62.09929,1.4802838 61.461593,2.1456391 Z m 6.574805,12.8281819 c 0.586969,2.797081 1.63644,5.779082 3.134902,9.266388 0.936259,2.176812 2.135885,4.41512 3.58893,6.570643 -2.035856,1.342742 -3.975962,3.468955 -5.822551,6.776369 -6.5e-5,1.24e-4 -0.125106,0.240923 -0.125171,0.241047 -0.09455,-0.21742 -0.188903,-0.432994 -0.283075,-0.64678 1.754806,-3.270375 3.592048,-5.349215 5.512752,-6.634297 -2.619849,-4.025819 -4.971953,-10.174118 -6.392803,-15.532846 -0.0015,-0.0061 -0.0824,-0.342259 -0.08388,-0.348408 2.706534,-1.575955 4.049566,-3.914776 4.043105,-7.2680776 -0.0027,-1.40778 -0.355211,-3.0088665 -1.067546,-4.9300657 0.909176,1.5238222 1.35821,3.3459694 1.362336,5.357779 0.0066,3.2144203 -1.277374,5.5242183 -3.867004,7.1482493 0,0 10e-7,-1e-6 10e-7,-1e-6 z"
         style="fill:url(#linearGradient4559);fill-opacity:1;stroke-width:0.66714656"
         id="path825"
         inkscape:connector-curvature="0"
         inkscape:original-d="m 56.902548,6.1867022 q 3.217244,-1.8597573 6.923184,-1.8597573 2.877872,0 4.737629,1.2488881 1.873333,1.2488881 1.873333,3.1765197 0,1.5746853 -1.221739,2.7964233 -1.221738,1.208163 -3.339418,1.751158 0.936666,2.579226 2.538501,5.022702 1.615409,2.443477 3.230819,3.746664 l -0.203623,0.06788 q -2.022656,0.692318 -3.963862,1.954781 l -0.203623,0.135749 -0.06788,-0.434396 q -0.868791,-5.253475 -2.429901,-8.905115 l -0.0543,-0.135749 q -0.936666,0.434396 -2.511351,0.692319 l -0.108599,0.01358 v 5.077001 l 2.389177,2.552076 H 57.472687 L 57.25549,22.720904 h 6.461638 l -1.968356,-2.09053 v -5.470673 l 0.285072,-0.04072 q 1.547535,-0.162899 2.5928,-0.610869 -0.08145,-0.162899 -0.09502,-0.203623 l -0.135749,-0.393672 q -0.01358,-0.04072 -0.06787,-0.162898 -0.841642,0.244348 -3.17652,0.52942 l -0.149323,0.02715 v 6.054392 l 1.547535,1.615409 h -6.000093 l 1.764733,-1.615409 V 15.79771 l -0.108599,0.01357 q -0.787342,0.176474 -1.425361,0.393671 l -0.108599,0.04073 -0.122174,-0.271497 q 0.597295,-0.230773 0.936666,-0.312222 l 0.719468,-0.176474 0.108599,-0.02715 v -0.705894 q -0.800917,0 -1.995506,0.352947 l -0.149323,0.0543 q 0.02715,-0.190048 0.271497,-0.882366 0.02715,-0.0543 0.190048,-0.610869 0.01357,-0.04073 0.04072,-0.122174 0.610869,0.04072 0.950241,0.04072 0.366522,0 0.678744,-0.04072 V 6.8654457 Q 57.676315,6.4853493 57.011147,6.2274268 Z m 4.099611,-0.3529467 v 7.3168555 q 0.393671,0 0.746618,-0.06787 V 6.4039001 q 0.746617,-0.2036231 1.791882,-0.2036231 2.6471,0 3.597341,1.7375834 -1.00454,-0.8144922 -1.764733,-1.1131393 -0.760193,-0.312222 -1.819033,-0.312222 -0.828067,0 -1.452511,0.1628984 v 6.4073385 l 0.149324,-0.02715 q 2.674249,-0.488696 3.963862,-1.533961 1.303187,-1.05884 1.303187,-2.7421236 0,-1.5068106 -1.167438,-2.4842013 -1.167439,-0.9909655 -2.945747,-0.9909655 -1.425362,0 -2.402752,0.5294209 z m 6.556662,8.1449225 q 0.855217,2.796423 3.027196,5.470672 1.357487,1.66971 3.434442,3.000047 -3.108645,0.828067 -5.837194,2.524926 l -0.122174,0.08145 -0.271497,-0.217198 q 2.5928,-1.696859 5.524972,-2.497776 -3.909563,-2.606375 -6.149416,-8.334971 L 67.0837,13.775056 q 4.15391,-1.574685 4.15391,-4.8055044 0,-1.3303373 -1.072415,-2.9050223 1.371062,1.2488881 1.371062,3.1765197 0,3.12222 -3.977437,4.73763 z" />
      <path
         d="m 74.658795,-0.45876927 c 1.772068,-0.003752 3.543702,-0.001167 5.315025,0.007792 2.615457,0.0132282 4.485691,1.07866257 5.706219,2.94773687 1.799197,2.7330526 2.661416,6.5165745 2.710411,11.0336824 0.05066,4.670295 -0.584877,9.035506 -2.048022,12.048871 -0.670528,1.372897 -1.436417,2.428187 -2.32925,3.063878 -0.883559,0.635396 -2.080412,0.976577 -3.608501,0.993683 -1.928021,0.02158 -3.857026,0.03327 -5.786937,0.03501 0.59021,-1.120004 1.175706,-2.178424 1.761591,-3.188317 C 76.070114,16.610621 76.043355,11.045315 76.085406,2.5491623 75.611107,1.5947655 75.136954,0.59739542 74.658795,-0.45876927 Z m 4.063814,2.22974287 c -0.08239,8.5864114 -0.05206,15.4256004 0.335008,25.5133474 0.248046,-0.002 0.496077,-0.0042 0.744094,-0.0065 -0.381614,-9.512138 -0.422818,-16.243812 -0.3563,-23.8657525 0.466062,-0.1276041 0.890513,-0.1909027 1.275111,-0.1892272 0.733445,0.0032 1.306832,0.144685 1.723918,0.4190428 0.426528,0.2585993 0.847231,0.7368457 1.268979,1.4122178 -0.941049,-0.771827 -1.941583,-1.1777161 -3.026269,-1.182033 -0.232257,-9.244e-4 -0.535922,0.029696 -0.911543,0.091861 -0.06127,7.3114601 -0.01647,14.0036891 0.364301,23.3106511 1.011251,-0.01 1.767697,-0.197831 2.275238,-0.553078 0.50751,-0.375224 0.966886,-1.070097 1.393565,-2.034356 1.180311,-2.651898 1.680945,-6.699874 1.633668,-11.206799 -0.04629,-4.4126603 -0.695184,-7.8406881 -2.073591,-9.8326609 -0.837906,-1.210359 -2.163101,-1.8682788 -4.014825,-1.8747543 -4.1e-5,-1e-7 -0.631313,-0.00198 -0.631354,-0.00198 z M 75.549814,32.405648 c -0.07892,-0.313058 -0.157394,-0.621636 -0.235492,-0.926005 1.670923,-0.0036 3.341155,-0.01519 5.010575,-0.03464 2.478382,-0.02887 4.27079,-0.927261 5.45618,-2.524261 2.50139,-3.342246 3.551507,-9.208109 3.480869,-15.012475 C 89.213227,9.9050346 88.65204,6.6979963 87.483247,4.3674081 87.31028,4.0236994 87.137746,3.6742309 86.965603,3.3182974 86.94881,3.2868232 86.89632,3.1719277 86.811167,2.9766878 c 1.854503,2.1870794 2.725836,5.9989066 2.783109,10.8296652 0.05963,5.029427 -0.660574,10.086155 -2.31681,13.801329 -1.303436,2.938265 -3.530272,4.722064 -6.907891,4.762637 -1.605847,0.01929 -3.21248,0.03108 -4.819761,0.03533 z"
         style="fill:url(#linearGradient4559);fill-opacity:1;stroke-width:0.66714656"
         id="path827"
         inkscape:connector-curvature="0"
         inkscape:original-d="m 74.319106,4.5577177 h 5.348499 q 3.923138,0 5.810045,1.5068106 2.809998,2.2262788 2.809998,6.9774837 0,4.927678 -2.457052,7.126807 -1.113139,0.990965 -2.497776,1.398211 -1.371062,0.407246 -3.65164,0.407246 h -5.76932 l 1.859757,-1.425361 V 6.1188278 Z m 4.113186,1.1402891 V 20.929011 H 79.17891 V 6.5939483 q 0.705893,-0.108599 1.289613,-0.108599 1.113139,0 1.751158,0.2307728 0.651594,0.2171979 1.303187,0.8144922 -1.438936,-0.6787435 -3.081495,-0.6787435 -0.352947,0 -0.923091,0.054299 V 20.929011 q 1.520385,0 2.307728,-0.244347 0.787342,-0.257923 1.493235,-0.977391 1.968357,-1.995506 1.968357,-6.705986 0,-4.601881 -2.131255,-6.2851649 -1.289613,-1.0181153 -4.086036,-1.0181153 z m -3.67879,17.3894092 -0.203623,-0.366522 h 4.968403 q 3.665215,0 5.565696,-1.018115 4.086036,-2.171979 4.086036,-8.402845 0,-4.167485 -1.832607,-6.1901407 L 86.794412,6.5124991 q -0.02715,-0.02715 -0.162898,-0.1900482 2.877872,1.8054577 2.877872,6.9096091 0,5.362074 -2.850723,7.900574 -2.185554,1.954782 -7.140381,1.954782 z" />
      <path
         d="m 91.21916,-0.30807148 c 4.284336,0.087361 8.568375,0.21248817 12.85386,0.37589251 0.18062,0.03712345 0.36127,0.07417058 0.54194,0.11113723 0.1909,0.0317818 0.38183,0.0635124 0.57278,0.0951882 -0.24865,0.52775456 -0.46718,1.00232144 -0.65622,1.42547544 -0.25343,0.5564046 -0.45593,1.0257288 -0.61072,1.4181775 -0.023,0.060274 -0.045,0.1187261 -0.066,0.1753917 -0.26197,0.7331192 -0.60142,1.8840799 -0.9961,3.3434447 -0.001,0.00389 -0.1138,0.4146009 -0.11486,0.4184947 -0.55863,-1.9073833 -1.09203,-3.3035192 -1.65199,-3.9575459 -0.55125,-0.6540963 -1.504894,-1.0164829 -2.878301,-1.0515519 -4.22e-4,3e-6 -0.766563,0.00572 -0.766985,0.00572 6.23e-4,2.72e-5 -1.303153,-0.056072 -1.30253,-0.056045 3.34e-4,2.45e-5 -0.496604,-0.036416 -0.49627,-0.036392 -0.132417,3.7261297 -0.157801,7.1941924 -0.141602,10.0817143 0.27166,-3.19e-4 0.543352,-6.35e-4 0.815078,-9.5e-4 -0.01427,-2.5715558 0.0056,-5.5646665 0.101208,-8.7178729 -2.12e-4,8.6e-6 0.390048,-0.015737 0.389836,-0.015729 0.556293,-0.036022 1.147169,-0.046813 1.773767,-0.032284 1.831289,0.042462 2.929429,0.9296274 3.352229,2.4867591 -0.42301,-0.6921445 -0.88534,-1.1801963 -1.39785,-1.4367083 -0.50254,-0.2713112 -1.289041,-0.4224703 -2.362751,-0.4453568 -0.384685,-0.0082 -0.863948,0.020773 -1.438392,0.08736 -0.08006,2.891578 -0.09728,5.6593109 -0.08394,8.0734449 0.672701,-7.74e-4 1.345614,-0.0015 2.018766,-0.0023 0.898925,-1.397936 1.246902,-1.927723 2.145827,-3.3256576 -0.0226,2.6464056 -0.001,5.5542636 0.0729,8.2626776 -0.79059,-1.141675 -1.539773,-2.200488 -2.311569,-3.295502 0.0064,-3.9e-5 -3.067043,0.01786 -3.060689,0.01782 0.03724,3.138509 0.136768,6.963496 0.428974,11.337419 0.65472,1.161452 1.322091,2.380487 2.023483,3.695823 -2.217442,0.09237 -4.43636,0.171969 -6.656677,0.23873 0.637556,-1.372845 1.284212,-2.650697 1.942229,-3.853796 -0.236469,-3.804314 -0.33867,-7.118586 -0.387326,-9.918795 -0.683156,0.0057 -1.281972,0.400289 -1.779123,1.20696 -0.0036,-0.0059 -0.259081,-0.426631 -0.262646,-0.432515 0.497003,-0.881858 1.180706,-1.313406 2.032872,-1.319498 -0.0048,-0.314882 -0.009,-0.628414 -0.0127,-0.94024 -0.187228,-0.02562 -0.320844,-0.03826 -0.400953,-0.03787 -0.824817,0.004 -1.541492,0.509974 -2.126973,1.543279 -0.01088,-0.03579 -0.08783,-0.288814 -0.09872,-0.324602 0.370407,-1.749749 1.25541,-2.687711 2.612042,-2.847422 -0.01542,-2.6557177 0.0032,-5.7307023 0.09217,-9.0052382 -0.57556,-1.0522922 -1.144645,-2.16195453 -1.708098,-3.347061 z m 14.88466,2.27054008 c -0.7176,1.302886 -1.28832,2.5061279 -1.71726,3.6103873 -0.23392,0.5888755 -0.42747,1.1531002 -0.5815,1.6955964 -0.11283,0.4036188 -0.20463,0.7933468 -0.27574,1.1709114 -0.0928,-0.09502 -0.18564,-0.1904289 -0.27835,-0.2862448 0.12922,-0.7502262 0.32297,-1.5158731 0.58264,-2.3030441 0.1683,-0.4991962 0.3646,-1.0037868 0.5891,-1.5135289 0.39697,-0.9220225 0.88527,-1.8672447 1.46539,-2.8246032 0.0716,0.1518025 0.14353,0.3019617 0.21572,0.4505259 z m -4.31118,7.4578754 c -0.0152,2.670813 0.0133,5.681471 0.10768,8.53611 -0.11954,-0.103083 -0.23894,-0.205808 -0.35824,-0.308219 -0.0883,-2.830442 -0.1144,-5.840054 -0.0958,-8.529288 0.11538,0.1008501 0.23083,0.2013083 0.34635,0.301397 z m -2.356504,5.912194 c -0.914015,0.01047 -1.827613,0.02045 -2.740857,0.02992 0.05195,2.764397 0.161708,6.067747 0.426401,9.851236 0.942136,1.985181 1.896654,4.081177 2.99016,6.540712 -2.634439,0.132803 -5.272565,0.245481 -7.91376,0.337914 -0.141401,-0.305798 -0.281461,-0.607201 -0.420397,-0.904628 2.493057,-0.08298 4.983676,-0.183496 7.471453,-0.301445 -0.873976,-1.957679 -1.665409,-3.690384 -2.440738,-5.331602 -0.296029,-4.157778 -0.407869,-7.761389 -0.456755,-10.730736 0.0029,-2.5e-5 2.684111,-0.02474 2.687004,-0.02477 -0.02116,-0.02837 0.418654,0.561767 0.397489,0.533397 z"
         style="fill:url(#linearGradient4559);fill-opacity:1;stroke-width:0.66714656"
         id="path829"
         inkscape:connector-curvature="0"
         inkscape:original-d="m 90.989049,4.5577177 h 14.090711 q -0.84164,1.1131394 -1.20816,1.7511583 -0.35295,0.6380189 -0.90952,2.0498054 l -0.10859,0.2714974 Q 101.95754,6.7839965 101.07518,6.2410016 100.20639,5.6980068 98.129431,5.6980068 L 97.355663,5.7115817 96.038901,5.6980068 95.53663,5.684432 v 6.353039 h 0.828068 V 6.4310498 l 0.393671,-0.013575 q 0.841642,-0.040725 1.791883,-0.040725 2.769278,0 3.461588,1.4389362 -0.66517,-0.6380189 -1.45251,-0.8552168 -0.773765,-0.2307728 -2.40275,-0.2307728 -0.583719,0 -1.452511,0.067874 V 12.03747 h 2.049806 L 100.92585,9.7433182 V 15.431189 L 98.645276,13.17776 H 95.53663 v 6.841735 l 1.737584,1.764733 h -6.665261 l 2.212703,-1.764733 v -5.837194 q -1.045265,0 -1.832607,0.787342 l -0.257923,-0.285072 q 0.787343,-0.868792 2.09053,-0.868792 V 13.17776 q -0.285072,-0.02715 -0.407246,-0.02715 -1.262463,0 -2.185554,1.03169 l -0.09502,-0.217198 Q 90.744705,12.200369 92.82166,12.03747 V 6.308876 Z m 15.122401,0.8280671 q -1.9412,2.2670034 -2.44347,4.1539103 l -0.28507,-0.1900482 q 0.51584,-2.1312546 2.4842,-4.1946349 z m -4.19463,4.8326542 v 5.864344 l -0.35295,-0.203623 v -5.864344 z m -2.429902,4.09961 h -2.782849 v 5.810045 l 2.389177,2.959322 h -7.859849 l -0.339372,-0.366522 h 7.439029 l -1.968356,-2.429902 v -6.339464 h 2.728548 z" />
      <path
         d="m 106.08303,0.4222028 c 2.09829,0.34590744 4.20033,0.6844818 6.30732,1.010713 -0.71427,0.9915423 -1.33423,1.8505737 -2.01727,2.7892135 -0.19077,5.1605475 -0.1844,14.4663187 0.49371,21.1651217 0.035,-0.0068 0.0701,-0.01356 0.10514,-0.02033 6.5e-4,-2e-5 0.48034,-0.0152 0.48098,-0.01522 -8e-5,1.6e-5 0.11841,-0.02293 0.11833,-0.02291 -0.67548,-6.571919 -0.67902,-15.8266041 -0.50388,-20.8226451 0.51478,-0.725177 1.00298,-1.4170054 1.53582,-2.1741352 0.0527,0.1715487 0.10583,0.3410762 0.15948,0.5086481 -0.47304,0.6736107 -0.91338,1.2988525 -1.37247,1.9473752 -0.16048,4.8728384 -0.15838,13.999265 0.50975,20.477248 0.4015,-0.009 0.78186,-0.04892 1.14158,-0.118101 1.39806,-0.268883 2.38147,-1.042417 3.00623,-2.176812 0.62605,-1.139013 1.0051,-2.829978 1.18623,-4.794522 0.95732,3.279927 2.04931,5.829814 3.16319,7.206163 -4.59134,0.945654 -9.16156,1.999242 -13.72156,3.094133 0.47436,-1.272275 0.97225,-2.441492 1.4885,-3.525478 -0.60988,-6.782028 -0.63071,-15.6934678 -0.41387,-21.236029 -0.57017,-1.0130695 -1.12825,-2.1039514 -1.66721,-3.2924332 z m 15.5831,24.5201832 c -0.10738,0.697591 -0.19824,1.428325 -0.26853,2.196101 -4.58252,1.134675 -9.14952,2.393552 -13.71026,3.702394 -0.0152,-0.02648 -0.42565,-0.742387 -0.44085,-0.768867 4.62115,-1.25255 9.25006,-2.457334 13.89697,-3.539698 0.0464,-0.523304 0.10219,-1.029338 0.16607,-1.51934 -1.24153,-1.799211 -2.18318,-3.766464 -2.85741,-5.759533 -5.1e-4,-0.0016 -0.0615,-0.197049 -0.062,-0.198669 0.14522,0.06129 0.29055,0.122433 0.43592,0.18341 -0.002,-0.0045 0.10915,0.31101 0.10757,0.306508 0.67973,1.775755 1.53628,3.539166 2.59716,5.199355 -6.9e-4,-10e-4 0.13606,0.199346 0.13538,0.198339 z"
         style="fill:url(#linearGradient4559);fill-opacity:1;stroke-width:0.66714656"
         id="path831"
         inkscape:connector-curvature="0"
         inkscape:original-d="m 106.00285,4.5577177 h 6.48879 l -1.91406,1.8597573 v 14.511536 h 0.1086 l 0.48869,0.04073 h 0.12218 V 6.5532237 l 1.46608,-1.4796609 0.19005,0.2986471 -1.31676,1.3439122 V 20.969736 q 0.61087,0.0543 1.16744,0.0543 2.1584,0 3.25797,-0.950241 1.11314,-0.963815 1.49323,-3.162944 1.27604,3.705939 2.61995,5.063426 h -14.17216 l 1.87333,-1.53396 V 6.2817263 Z m 15.5025,17.3079593 -0.61087,1.221739 h -14.17216 l -0.33938,-0.366522 h 14.36222 l 0.39367,-0.855217 q -1.49324,-1.832607 -2.38918,-4.086036 l -0.0543,-0.149323 0.4344,0.162898 0.095,0.230773 q 0.90952,2.009081 2.17198,3.70594 z" />
      <path
         d="m 120.9098,2.6684581 c 2.10473,0.2816595 4.21594,0.5445644 6.3348,0.7838294 -0.6374,0.7118746 -1.28332,1.450493 -1.8927,2.1529592 -0.059,2.5733414 -0.0237,13.3886043 0.29431,16.6471243 0.62115,0.581338 1.26423,1.171484 1.92046,1.753401 -2.0605,0.364063 -4.11566,0.756523 -6.16645,1.171454 0.49149,-0.975835 1.01312,-1.877123 1.55663,-2.717928 C 122.59428,18.65261 122.5656,8.2934209 122.6578,5.1944465 122.05919,4.4082078 121.47306,3.570515 120.9098,2.6684581 Z m 6.89092,1.8183978 c -0.4752,0.5158991 -0.95589,1.0450516 -1.41884,1.5578264 -0.0377,2.3240921 -0.002,13.0551967 0.28992,16.0671667 0.84924,1.037987 1.76983,2.124057 2.74968,3.185252 -2.29306,0.480569 -4.58092,1.002676 -6.86474,1.557148 -0.14766,-0.183104 -0.29366,-0.365595 -0.43795,-0.547223 2.13577,-0.489157 4.27549,-0.951381 6.42015,-1.379434 -0.78001,-0.861915 -1.52352,-1.735138 -2.2218,-2.57977 -0.32424,-3.194961 -0.35647,-14.0152931 -0.31006,-16.4773308 0.5134,-0.5721585 1.04969,-1.1657154 1.57954,-1.7424034 0.0709,0.1206453 0.14227,0.2402239 0.2141,0.3587681 z"
         style="fill:url(#linearGradient4559);fill-opacity:1;stroke-width:0.66714656"
         id="path833"
         inkscape:connector-curvature="0"
         inkscape:original-d="m 121.20671,4.5577177 h 6.43448 l -1.81903,1.8461824 V 20.53534 l 1.71044,1.438936 h -6.32589 l 1.8869,-1.56111 V 6.2545765 Z m 7.04535,0.7737676 -1.38463,1.3710619 V 20.53534 l 2.28057,2.552076 h -7.05893 l -0.33937,-0.366522 h 6.59739 l -1.85976,-2.049805 V 6.5803734 l 1.53396,-1.5203855 z" />
      <path
         d="m 146.08509,4.8233934 c -0.99524,0.5632001 -2.00131,1.1706307 -2.98316,1.780522 -1.40467,1.7630722 -2.79975,3.6039976 -4.27081,5.4619666 1.71334,2.735021 3.19566,5.503213 4.94065,8.059464 0.80629,0.534872 1.63504,1.05381 2.48265,1.532364 -2.32664,0.155852 -4.64317,0.368286 -6.95091,0.629257 0.47995,-0.657812 1.00027,-1.284676 1.54559,-1.888311 -1.02175,-1.502949 -2.1874,-3.50737 -3.11526,-5.061627 -1.30096,1.671524 -2.68498,3.523106 -3.78717,5.503611 0.80942,1.033108 1.69277,2.093483 2.66322,3.09953 -2.4248,0.40395 -4.84254,0.864444 -7.25455,1.370804 -0.10178,-0.162509 -0.20176,-0.324476 -0.3,-0.485768 2.24698,-0.442518 4.49948,-0.846918 6.75861,-1.204888 -0.82541,-0.895943 -1.58946,-1.827258 -2.2979,-2.737822 1.16312,-2.126517 2.65435,-4.11452 4.03068,-5.889328 -0.12581,-0.202081 -0.25089,-0.402452 -0.37755,-0.60468 -1.48333,1.87061 -3.13634,4.000546 -4.41439,6.2642 0.59705,0.739376 1.22834,1.492494 1.89116,2.226054 -2.04279,0.287125 -4.07933,0.608362 -6.11055,0.95805 0.89295,-1.12104 1.84548,-2.12609 2.8346,-3.047829 1.47183,-2.708805 3.50832,-5.284763 5.21453,-7.4469 -1.18758,-1.945918 -3.18715,-5.0678188 -4.36557,-7.3017257 -0.85421,-0.7232932 -1.69464,-1.4918332 -2.50329,-2.320384 2.36708,0.2452589 4.74422,0.4588313 7.13307,0.6339648 -0.61012,0.5045866 -1.21873,1.0270683 -1.81206,1.546475 0.9488,1.7149489 2.17727,3.6046101 3.17157,5.1667219 0.16375,-0.210624 0.32468,-0.418061 0.48712,-0.627891 -0.8598,-1.3060135 -1.85025,-2.7982938 -2.67581,-4.2014516 0.49996,-0.4804918 1.01164,-0.9642482 1.52387,-1.4335003 0.0798,0.085857 0.16009,0.1712393 0.2407,0.2561609 -0.44059,0.3932177 -0.88086,0.7960173 -1.31355,1.1975865 0.75754,1.3066208 1.65004,2.6837532 2.4402,3.9089675 0.80145,-1.0399015 2.08752,-2.7294584 2.87414,-3.7245221 -0.59155,-0.6095454 -1.1743,-1.2352818 -1.72578,-1.87735 1.9997,0.1161852 4.00804,0.2035806 6.02595,0.2582785 z m 0.5242,0.958993 c -0.87283,0.4679144 -1.76184,0.9614173 -2.63358,1.4533584 -1.23016,1.5976587 -2.47361,3.2537532 -3.77984,4.9222642 1.61657,2.581651 3.02158,5.199168 4.62248,7.608881 1.11494,0.976133 2.30088,1.919653 3.58172,2.705046 -2.78263,0.220067 -5.5534,0.535202 -8.31424,0.929781 -0.10966,-0.1184 -0.2175,-0.237503 -0.32362,-0.357173 2.56124,-0.340206 5.13181,-0.614991 7.71334,-0.812369 -1.04742,-0.686614 -2.03348,-1.472095 -2.96954,-2.283766 -1.66295,-2.464209 -3.09874,-5.144991 -4.756,-7.789214 1.36961,-1.748151 2.67068,-3.4822919 3.96488,-5.1503243 0.88544,-0.5027601 1.78795,-1.0054101 2.67661,-1.4808568 0.0722,0.084773 0.14481,0.1695781 0.21779,0.2543725 z"
         style="fill:url(#linearGradient4559);fill-opacity:1;stroke-width:0.66714656"
         id="path835"
         inkscape:connector-curvature="0"
         inkscape:original-d="m 146.48311,4.5577177 -2.98647,1.9547814 -4.34396,5.5249719 4.96841,8.158497 2.36202,1.778308 h -7.00463 l 1.72401,-1.669709 -3.09507,-5.049851 -3.82812,4.941252 2.22628,2.891448 h -7.42545 l -0.20362,-0.366522 h 6.9096 l -1.9412,-2.524926 4.07246,-5.280624 -0.3801,-0.597295 -4.43898,5.619997 1.65613,2.03623 h -6.23086 l 3.17652,-2.03623 5.25347,-6.651687 -4.23536,-6.9096086 -2.57922,-1.8190327 h 7.16753 l -1.77831,1.5475352 3.0272,4.9412531 0.48869,-0.624444 -2.5385,-4.0453116 1.50681,-1.4389363 0.24435,0.2307728 -1.30319,1.2081635 2.30773,3.7738136 2.94575,-3.7738136 -1.69686,-1.8190327 z m 0.4887,1.0316902 -2.6471,1.5611101 -3.84169,4.981977 4.68333,7.737676 3.31227,3.217245 h -8.43 l -0.24434,-0.366522 h 7.80555 l -2.7557,-2.674249 -4.80551,-7.91415 4.03174,-5.2127498 2.68782,-1.6018347 z" />
    </g>
  </g>
</svg>
